<?xml version="1.0" standalone="no"?><!DOCTYPE svg PUBLIC "-//W3C//DTD SVG 1.1//EN" "http://www.w3.org/Graphics/SVG/1.1/DTD/svg11.dtd"><svg t="1685084860400" class="icon" viewBox="0 0 1024 1024" version="1.1" xmlns="http://www.w3.org/2000/svg" p-id="10816" xmlns:xlink="http://www.w3.org/1999/xlink" width="16" height="16"><path d="M222.554581 844.117731a469.504 469.504 0 1 0 663.967335-663.990513 469.504 469.504 0 1 0-663.967335 663.990513Z" fill="#F89811" p-id="10817"></path><path d="M268.894722 797.775972a403.968 403.968 0 1 0 571.287053-571.306995 403.968 403.968 0 1 0-571.287053 571.306995Z" fill="#FDA71B" p-id="10818"></path><path d="M581.12 271.36v417.792c0 8.704 7.168 15.872 15.872 15.872 8.704 0 15.872-7.168 15.872-15.872V271.36c0-8.704-7.168-15.872-15.872-15.872-8.704-0.512-15.872 6.656-15.872 15.872z m176.128 385.024c8.704 0 15.872-7.168 15.872-15.872v-240.64c0-8.704-7.168-15.872-15.872-15.872s-15.872 7.168-15.872 15.872v240.64c0 8.704 7.168 15.872 15.872 15.872z m176.128-140.288V463.872c0-8.704-7.168-15.872-15.872-15.872s-15.872 7.168-15.872 15.872v52.224c0 8.704 7.168 15.872 15.872 15.872s15.872-7.168 15.872-15.872z m-512-116.224v176.128c0 8.704 7.168 15.872 15.872 15.872 8.704 0 15.872-7.168 15.872-15.872V399.872c0-8.704-7.168-15.872-15.872-15.872-8.704-0.512-15.872 6.656-15.872 15.872zM261.12 463.872v52.224c0 8.704 7.168 15.872 15.872 15.872s15.872-7.168 15.872-15.872V463.872c0-8.704-7.168-15.872-15.872-15.872S261.12 454.656 261.12 463.872z" fill="#FAFCF9" p-id="10819"></path><path d="M677.376 319.488c-8.704 0-15.872 7.168-15.872 15.872V752.64c0 8.704 7.168 15.872 15.872 15.872s15.872-7.168 15.872-15.872V335.872c0-9.216-7.168-16.384-15.872-16.384z m159.744 96.256c-8.704 0-15.872 7.168-15.872 15.872v144.896c0 8.704 7.168 15.872 15.872 15.872s15.872-7.168 15.872-15.872V431.616c0.512-8.704-6.656-15.872-15.872-15.872zM517.12 335.872c-8.704 0-15.872 7.168-15.872 15.872v272.384c0 8.704 7.168 15.872 15.872 15.872 8.704 0 15.872-7.168 15.872-15.872V351.744c0.512-8.704-6.656-15.872-15.872-15.872zM357.376 415.744c-8.704 0-15.872 7.168-15.872 15.872v112.128c0 8.704 7.168 15.872 15.872 15.872 8.704 0 15.872-7.168 15.872-15.872V431.616c0-8.704-7.168-15.872-15.872-15.872z" fill="#FFCD1E" p-id="10820"></path><path d="M640 793.6V307.2c0-29.696-21.504-51.2-51.2-51.2H162.304c-47.104 72.704-76.8 162.304-76.8 256 0 132.096 55.296 256 149.504 341.504h345.6c29.696 0 59.392-30.208 59.392-59.904z" opacity=".5" p-id="10821"></path><path d="M640 793.6V307.2c0-29.696-21.504-51.2-51.2-51.2H162.304c-47.104 72.704-76.8 162.304-76.8 256 0 132.096 55.296 256 149.504 341.504h345.6c29.696 0 59.392-30.208 59.392-59.904z" opacity=".1" p-id="10822"></path><path d="M546.304 810.496H51.2c-29.696 0-51.2-21.504-51.2-51.2V264.704c0-29.696 21.504-51.2 51.2-51.2h499.2c25.6 0 47.104 21.504 47.104 51.2v499.2c0 25.6-21.504 46.592-51.2 46.592z" fill="#FFCD1E" p-id="10823"></path><path d="M100.864 638.976c0 66.048 53.248 119.296 119.296 119.296s119.296-53.248 119.296-119.296-53.248-119.296-119.296-119.296-119.296 53.76-119.296 119.296z" fill="#FBFDFC" p-id="10824"></path><path d="M286.208 281.6v357.376h52.736V387.584l145.408 39.936V334.336L286.208 281.6z" fill="#FBFDFC" p-id="10825"></path></svg>